<mxfile host="app.diagrams.net" modified="2020-10-26T02:35:32.944Z" agent="5.0 (Macintosh; Intel Mac OS X 10_15_6) AppleWebKit/537.36 (KHTML, like Gecko) Chrome/86.0.4240.80 Safari/537.36" etag="0sE9v6S_xkDCgqhKgM7-" version="13.8.1" type="github">
  <diagram id="Ym3tcIDraPP4afSIXonn" name="Page-1">
    <mxGraphModel dx="1320" dy="827" grid="1" gridSize="10" guides="1" tooltips="1" connect="1" arrows="1" fold="1" page="1" pageScale="1" pageWidth="827" pageHeight="1169" math="0" shadow="0">
      <root>
        <mxCell id="0" />
        <mxCell id="1" parent="0" />
        <mxCell id="txrcQl1OaOKVFg53rLGW-9" style="edgeStyle=orthogonalEdgeStyle;rounded=0;orthogonalLoop=1;jettySize=auto;html=1;entryX=0;entryY=0.5;entryDx=0;entryDy=0;fontColor=#507F86;" edge="1" parent="1" source="txrcQl1OaOKVFg53rLGW-2" target="txrcQl1OaOKVFg53rLGW-6">
          <mxGeometry relative="1" as="geometry" />
        </mxCell>
        <mxCell id="txrcQl1OaOKVFg53rLGW-2" value="&lt;p class=&quot;p1&quot; style=&quot;margin: 0px; font-stretch: normal; line-height: normal; font-family: menlo; background-color: rgb(255, 255, 255); font-size: 16px;&quot;&gt;TVMLInterfaceCreator&lt;br style=&quot;font-size: 16px;&quot;&gt;&lt;/p&gt;&lt;p class=&quot;p1&quot; style=&quot;margin: 0px; font-stretch: normal; line-height: normal; font-family: &amp;quot;helvetica neue&amp;quot;; background-color: rgb(255, 255, 255); font-size: 16px;&quot;&gt;注册自定义的元素和模板&lt;/p&gt;" style="rounded=1;whiteSpace=wrap;html=1;fontSize=16;fontColor=#507F86;" vertex="1" parent="1">
          <mxGeometry x="112.5" y="620" width="217.5" height="150" as="geometry" />
        </mxCell>
        <mxCell id="txrcQl1OaOKVFg53rLGW-8" style="edgeStyle=orthogonalEdgeStyle;rounded=0;orthogonalLoop=1;jettySize=auto;html=1;entryX=0.5;entryY=0;entryDx=0;entryDy=0;fontColor=#507F86;" edge="1" parent="1" source="txrcQl1OaOKVFg53rLGW-3" target="txrcQl1OaOKVFg53rLGW-2">
          <mxGeometry relative="1" as="geometry" />
        </mxCell>
        <mxCell id="txrcQl1OaOKVFg53rLGW-3" value="&lt;p class=&quot;p1&quot; style=&quot;margin: 0px; font-stretch: normal; line-height: normal; font-family: menlo; background-color: rgb(255, 255, 255); font-size: 16px;&quot;&gt;TVMLViewController&lt;br style=&quot;font-size: 16px;&quot;&gt;运行的上下文环境&lt;/p&gt;" style="rounded=1;whiteSpace=wrap;html=1;fontSize=16;fontColor=#507F86;" vertex="1" parent="1">
          <mxGeometry x="97.5" y="390" width="195" height="130" as="geometry" />
        </mxCell>
        <mxCell id="txrcQl1OaOKVFg53rLGW-7" style="edgeStyle=orthogonalEdgeStyle;rounded=0;orthogonalLoop=1;jettySize=auto;html=1;fontColor=#507F86;" edge="1" parent="1" source="txrcQl1OaOKVFg53rLGW-4" target="txrcQl1OaOKVFg53rLGW-3">
          <mxGeometry relative="1" as="geometry" />
        </mxCell>
        <mxCell id="txrcQl1OaOKVFg53rLGW-11" style="edgeStyle=orthogonalEdgeStyle;rounded=0;orthogonalLoop=1;jettySize=auto;html=1;exitX=1;exitY=0.5;exitDx=0;exitDy=0;fontColor=#507F86;" edge="1" parent="1" source="txrcQl1OaOKVFg53rLGW-4" target="txrcQl1OaOKVFg53rLGW-10">
          <mxGeometry relative="1" as="geometry" />
        </mxCell>
        <mxCell id="txrcQl1OaOKVFg53rLGW-4" value="&lt;p class=&quot;p1&quot; style=&quot;margin: 0px; font-stretch: normal; line-height: normal; font-family: menlo; background-color: rgb(255, 255, 255); font-size: 16px;&quot;&gt;TVMLCommonJSExport&lt;br style=&quot;font-size: 16px;&quot;&gt;与Web定义的交互协议&lt;/p&gt;" style="rounded=1;whiteSpace=wrap;html=1;fontSize=16;fontColor=#507F86;" vertex="1" parent="1">
          <mxGeometry x="100" y="180" width="190" height="110" as="geometry" />
        </mxCell>
        <mxCell id="txrcQl1OaOKVFg53rLGW-13" style="edgeStyle=orthogonalEdgeStyle;rounded=0;orthogonalLoop=1;jettySize=auto;html=1;exitX=0.5;exitY=0;exitDx=0;exitDy=0;entryX=0.5;entryY=1;entryDx=0;entryDy=0;entryPerimeter=0;fontColor=#507F86;" edge="1" parent="1" source="txrcQl1OaOKVFg53rLGW-6" target="txrcQl1OaOKVFg53rLGW-12">
          <mxGeometry relative="1" as="geometry" />
        </mxCell>
        <mxCell id="txrcQl1OaOKVFg53rLGW-6" value="&lt;p class=&quot;p1&quot; style=&quot;margin: 0px; font-stretch: normal; line-height: normal; font-family: menlo; background-color: rgb(255, 255, 255); font-size: 16px;&quot;&gt;QRCodeCreator&lt;br style=&quot;font-size: 16px;&quot;&gt;&lt;/p&gt;&lt;p class=&quot;p1&quot; style=&quot;margin: 0px; font-stretch: normal; line-height: normal; font-family: menlo; background-color: rgb(255, 255, 255); font-size: 16px;&quot;&gt;VipContentCreator&lt;br style=&quot;font-size: 16px;&quot;&gt;&lt;/p&gt;&lt;p class=&quot;p1&quot; style=&quot;margin: 0px; font-stretch: normal; line-height: normal; font-family: menlo; background-color: rgb(255, 255, 255); font-size: 16px;&quot;&gt;TextFieldCreator&lt;br style=&quot;font-size: 16px;&quot;&gt;自定义的元生的TVML元素&lt;/p&gt;" style="rounded=1;whiteSpace=wrap;html=1;fontSize=16;fontColor=#507F86;" vertex="1" parent="1">
          <mxGeometry x="423" y="635" width="230" height="120" as="geometry" />
        </mxCell>
        <mxCell id="txrcQl1OaOKVFg53rLGW-10" value="定义了登录，购买VIP与web交互的数据接口" style="shape=note;whiteSpace=wrap;html=1;backgroundOutline=1;darkOpacity=0.05;fontSize=16;fontColor=#507F86;" vertex="1" parent="1">
          <mxGeometry x="397" y="170" width="256" height="130" as="geometry" />
        </mxCell>
        <mxCell id="txrcQl1OaOKVFg53rLGW-12" value="定义的原生元素可以在TVMLweb端当做标签使用" style="shape=note;whiteSpace=wrap;html=1;backgroundOutline=1;darkOpacity=0.05;fontSize=16;fontColor=#507F86;" vertex="1" parent="1">
          <mxGeometry x="433" y="445" width="210" height="140" as="geometry" />
        </mxCell>
      </root>
    </mxGraphModel>
  </diagram>
</mxfile>
